# Blender v2.90.0 OBJ File: 'tapperlevelwithtempobj.blend'
# www.blender.org
mtllib Environment_Bottle.mtl
o Environment_Bottle_Cube.205
v 0.109360 0.106900 0.349951
v 0.148647 0.019403 0.349951
v 0.148647 0.019403 0.349951
v 0.129002 -0.074475 0.349951
v 0.057928 -0.138877 0.349951
v 0.057928 -0.138877 0.349951
v -0.037427 -0.149204 0.349951
v -0.037427 -0.149204 0.349951
v -0.120640 -0.101509 0.349951
v -0.159927 -0.014013 0.349951
v -0.159927 -0.014013 0.349951
v -0.140281 0.079866 0.349951
v -0.140281 0.079866 0.349951
v -0.069207 0.144268 0.349951
v -0.069207 0.144268 0.349951
v 0.026147 0.154594 0.349951
v 0.050704 0.008797 0.925803
v 0.050704 0.008797 0.925803
v 0.050704 0.008797 0.925803
v 0.036357 0.040749 0.925803
v 0.036357 0.040749 0.925803
v 0.043529 -0.025487 0.925803
v 0.043529 -0.025487 0.925803
v 0.017574 -0.049005 0.925803
v 0.017574 -0.049005 0.925803
v -0.017248 -0.052776 0.925803
v -0.017248 -0.052776 0.925803
v -0.017248 -0.052776 0.925803
v -0.047636 -0.035359 0.925803
v -0.047636 -0.035359 0.925803
v -0.061984 -0.003406 0.925803
v -0.061984 -0.003406 0.925803
v -0.061984 -0.003406 0.925803
v -0.054809 0.030877 0.925803
v -0.054809 0.030877 0.925803
v -0.028854 0.054396 0.925803
v -0.028854 0.054396 0.925803
v -0.028854 0.054396 0.925803
v 0.005968 0.058167 0.925803
v 0.005968 0.058167 0.925803
v 0.070035 0.010890 0.925803
v 0.070035 0.010890 0.925803
v 0.070035 0.010890 0.925803
v 0.050766 0.053806 0.925803
v 0.050766 0.053806 0.925803
v 0.060400 -0.035156 0.925803
v 0.060400 -0.035156 0.925803
v 0.025539 -0.066744 0.925803
v 0.025539 -0.066744 0.925803
v -0.021231 -0.071809 0.925803
v -0.021231 -0.071809 0.925803
v -0.021231 -0.071809 0.925803
v -0.062046 -0.048415 0.925803
v -0.062046 -0.048415 0.925803
v -0.081315 -0.005500 0.925803
v -0.081315 -0.005500 0.925803
v -0.081315 -0.005500 0.925803
v -0.071679 0.040546 0.925803
v -0.071679 0.040546 0.925803
v -0.036819 0.072134 0.925803
v -0.036819 0.072134 0.925803
v -0.036819 0.072134 0.925803
v 0.009951 0.077199 0.925803
v 0.009951 0.077199 0.925803
v 0.050168 0.008739 0.979867
v 0.050168 0.008739 0.979867
v 0.050168 0.008739 0.979867
v 0.035957 0.040387 0.979867
v 0.035957 0.040387 0.979867
v 0.043062 -0.025218 0.979867
v 0.043062 -0.025218 0.979867
v 0.017353 -0.048513 0.979867
v 0.017353 -0.048513 0.979867
v -0.017138 -0.052248 0.979867
v -0.017138 -0.052248 0.979867
v -0.017138 -0.052248 0.979867
v -0.047237 -0.034997 0.979867
v -0.047237 -0.034997 0.979867
v -0.061447 -0.003348 0.979867
v -0.061447 -0.003348 0.979867
v -0.061447 -0.003348 0.979867
v -0.054341 0.030609 0.979867
v -0.054341 0.030609 0.979867
v -0.028633 0.053904 0.979867
v -0.028633 0.053904 0.979867
v -0.028633 0.053904 0.979867
v 0.005858 0.057639 0.979867
v 0.005858 0.057639 0.979867
v 0.109360 0.106900 0.500195
v 0.078666 0.079087 0.654715
v 0.100370 0.098754 0.579535
v 0.107467 0.014944 0.654715
v 0.107467 0.014944 0.654715
v 0.148647 0.019403 0.500195
v 0.148647 0.019403 0.500195
v 0.136586 0.018097 0.579535
v 0.136586 0.018097 0.579535
v 0.093065 -0.053878 0.654715
v 0.129002 -0.074475 0.500195
v 0.118476 -0.068443 0.579535
v 0.040961 -0.101091 0.654715
v 0.057928 -0.138877 0.500195
v 0.057928 -0.138877 0.500195
v 0.052958 -0.127810 0.579535
v -0.028943 -0.108661 0.654715
v -0.028943 -0.108661 0.654715
v -0.037427 -0.149204 0.500195
v -0.037427 -0.149204 0.500195
v -0.037427 -0.149204 0.500195
v -0.037427 -0.149204 0.500195
v -0.034942 -0.137329 0.579535
v -0.034942 -0.137329 0.579535
v -0.089946 -0.073696 0.654715
v -0.120640 -0.101509 0.500195
v -0.120640 -0.101509 0.500195
v -0.111650 -0.093363 0.579535
v -0.118747 -0.009553 0.654715
v -0.118747 -0.009553 0.654715
v -0.159927 -0.014013 0.500195
v -0.159927 -0.014013 0.500195
v -0.159927 -0.014013 0.500195
v -0.159927 -0.014013 0.500195
v -0.147865 -0.012706 0.579535
v -0.147865 -0.012706 0.579535
v -0.104345 0.059269 0.654715
v -0.140281 0.079866 0.500195
v -0.140281 0.079866 0.500195
v -0.129756 0.073833 0.579535
v -0.052241 0.106481 0.654715
v -0.052241 0.106481 0.654715
v -0.069207 0.144268 0.500195
v -0.069207 0.144268 0.500195
v -0.064238 0.133200 0.579535
v -0.064238 0.133200 0.579535
v 0.017663 0.114051 0.654715
v 0.026147 0.154594 0.500195
v 0.023662 0.142719 0.579535
v 0.050704 0.008797 0.795946
v 0.050704 0.008797 0.795946
v 0.071552 0.011054 0.717717
v 0.071552 0.011054 0.717717
v 0.051896 0.054830 0.717717
v 0.036357 0.040749 0.795946
v 0.043529 -0.025487 0.795946
v 0.061723 -0.035914 0.717717
v 0.017574 -0.049005 0.795946
v 0.026164 -0.068136 0.717717
v -0.017248 -0.052776 0.795946
v -0.017248 -0.052776 0.795946
v -0.021543 -0.073302 0.717717
v -0.021543 -0.073302 0.717717
v -0.047636 -0.035359 0.795946
v -0.063176 -0.049440 0.717717
v -0.061984 -0.003406 0.795946
v -0.061984 -0.003406 0.795946
v -0.082832 -0.005664 0.717717
v -0.082832 -0.005664 0.717717
v -0.054809 0.030877 0.795946
v -0.073003 0.041305 0.717717
v -0.028854 0.054396 0.795946
v -0.028854 0.054396 0.795946
v -0.037444 0.073526 0.717717
v -0.037444 0.073526 0.717717
v 0.005968 0.058167 0.795946
v 0.010264 0.078692 0.717717
v 0.084538 0.084408 0.005897
v 0.109360 0.106900 0.037755
v 0.109360 0.106900 0.037755
v 0.148647 0.019403 0.037755
v 0.148647 0.019403 0.037755
v 0.148647 0.019403 0.037755
v 0.115345 0.015797 0.005897
v 0.129002 -0.074475 0.037755
v 0.129002 -0.074475 0.037755
v 0.099940 -0.057818 0.005897
v 0.057928 -0.138877 0.037755
v 0.057928 -0.138877 0.037755
v 0.057928 -0.138877 0.037755
v 0.044207 -0.108319 0.005897
v -0.037427 -0.149204 0.037755
v -0.037427 -0.149204 0.037755
v -0.037427 -0.149204 0.037755
v -0.030566 -0.116417 0.005897
v -0.120640 -0.101509 0.037755
v -0.120640 -0.101509 0.037755
v -0.095818 -0.079017 0.005897
v -0.159927 -0.014013 0.037755
v -0.159927 -0.014013 0.037755
v -0.159927 -0.014013 0.037755
v -0.126625 -0.010406 0.005897
v -0.140281 0.079866 0.037755
v -0.140281 0.079866 0.037755
v -0.140281 0.079866 0.037755
v -0.111219 0.063209 0.005897
v -0.069207 0.144268 0.037755
v -0.069207 0.144268 0.037755
v -0.069207 0.144268 0.037755
v -0.055486 0.113710 0.005897
v 0.026147 0.154594 0.037755
v 0.026147 0.154594 0.037755
v 0.019286 0.121807 0.005897
vt 0.213643 0.969017
vt 0.213639 0.969026
vt 0.213635 0.969025
vt 0.213640 0.969012
vt 0.213643 0.969047
vt 0.213650 0.969049
vt 0.213650 0.969056
vt 0.213640 0.969052
vt 0.213661 0.969036
vt 0.213661 0.969024
vt 0.213664 0.969022
vt 0.213664 0.969037
vt 0.213650 0.969013
vt 0.213650 0.969006
vt 0.213639 0.969038
vt 0.213635 0.969040
vt 0.213656 0.969045
vt 0.213659 0.969050
vt 0.213656 0.969015
vt 0.213659 0.969010
vt 0.213741 0.969262
vt 0.213749 0.969262
vt 0.213753 0.969269
vt 0.213754 0.969279
vt 0.213750 0.969289
vt 0.213742 0.969296
vt 0.213735 0.969296
vt 0.213730 0.969289
vt 0.213730 0.969279
vt 0.213734 0.969269
vt 0.345837 0.970717
vt 0.345837 0.970747
vt 0.345808 0.970746
vt 0.345808 0.970716
vt 0.345409 0.971140
vt 0.345415 0.971141
vt 0.345415 0.971167
vt 0.345409 0.971167
vt 0.345390 0.971142
vt 0.345399 0.971141
vt 0.345399 0.971167
vt 0.345390 0.971168
vt 0.346053 0.970920
vt 0.346045 0.970919
vt 0.346045 0.970893
vt 0.346053 0.970894
vt 0.346061 0.970920
vt 0.346061 0.970894
vt 0.345540 0.971194
vt 0.345533 0.971194
vt 0.345533 0.971167
vt 0.345540 0.971168
vt 0.345549 0.971194
vt 0.345549 0.971168
vt 0.345833 0.970810
vt 0.345843 0.970811
vt 0.345843 0.970838
vt 0.345833 0.970836
vt 0.345525 0.971289
vt 0.345525 0.971258
vt 0.345551 0.971257
vt 0.345551 0.971288
vt 0.213742 0.969437
vt 0.213767 0.969440
vt 0.213767 0.969503
vt 0.213742 0.969500
vt 0.345550 0.971225
vt 0.345531 0.971225
vt 0.345537 0.971211
vt 0.345549 0.971211
vt 0.213216 0.969712
vt 0.213216 0.969682
vt 0.213234 0.969683
vt 0.213234 0.969714
vt 0.213767 0.969409
vt 0.213789 0.969409
vt 0.213789 0.969440
vt 0.213742 0.969407
vt 0.345789 0.970748
vt 0.345789 0.970717
vt 0.213105 0.969472
vt 0.213105 0.969502
vt 0.213081 0.969505
vt 0.213081 0.969475
vt 0.345423 0.971046
vt 0.345423 0.971076
vt 0.345397 0.971077
vt 0.345397 0.971047
vt 0.345440 0.971048
vt 0.345440 0.971078
vt 0.345863 0.970720
vt 0.345863 0.970750
vt 0.346056 0.970951
vt 0.346038 0.970949
vt 0.346042 0.970935
vt 0.346055 0.970937
vt 0.345823 0.970810
vt 0.345823 0.970836
vt 0.345835 0.970780
vt 0.345854 0.970782
vt 0.345847 0.970795
vt 0.345834 0.970794
vt 0.346072 0.970951
vt 0.346065 0.970937
vt 0.345398 0.971110
vt 0.345417 0.971109
vt 0.345412 0.971124
vt 0.345399 0.971124
vt 0.345814 0.970779
vt 0.345820 0.970793
vt 0.345519 0.971224
vt 0.345528 0.971210
vt 0.345380 0.971112
vt 0.345386 0.971126
vt 0.345430 0.971111
vt 0.345420 0.971124
vt 0.213136 0.969695
vt 0.213137 0.969686
vt 0.213149 0.969692
vt 0.213148 0.969698
vt 0.213762 0.969064
vt 0.213760 0.969077
vt 0.213749 0.969074
vt 0.213750 0.969064
vt 0.213624 0.969318
vt 0.213623 0.969307
vt 0.213635 0.969306
vt 0.213635 0.969314
vt 0.213136 0.969708
vt 0.213148 0.969707
vt 0.213762 0.969051
vt 0.213750 0.969054
vt 0.213588 0.969064
vt 0.213588 0.969056
vt 0.213600 0.969061
vt 0.213599 0.969067
vt 0.213137 0.969720
vt 0.213149 0.969717
vt 0.213760 0.969041
vt 0.213749 0.969047
vt 0.213588 0.969077
vt 0.213600 0.969076
vt 0.213624 0.969295
vt 0.213635 0.969297
vt 0.345810 0.970763
vt 0.345792 0.970764
vt 0.345800 0.970780
vt 0.345437 0.971094
vt 0.345421 0.971093
vt 0.345397 0.971094
vt 0.345372 0.971080
vt 0.345374 0.971097
vt 0.346058 0.970984
vt 0.346034 0.970982
vt 0.346035 0.970965
vt 0.346058 0.970968
vt 0.346080 0.970984
vt 0.346078 0.970968
vt 0.345508 0.971257
vt 0.345511 0.971240
vt 0.345527 0.971242
vt 0.345551 0.971241
vt 0.345860 0.970766
vt 0.345836 0.970764
vt 0.345816 0.970811
vt 0.345816 0.970837
vt 0.345810 0.970794
vt 0.345808 0.970653
vt 0.345837 0.970654
vt 0.345166 0.971247
vt 0.345175 0.971226
vt 0.345190 0.971217
vt 0.345204 0.971223
vt 0.345214 0.971242
vt 0.345214 0.971266
vt 0.345204 0.971287
vt 0.345190 0.971296
vt 0.345175 0.971290
vt 0.345166 0.971271
vt 0.345863 0.970656
vt 0.213789 0.969502
vt 0.345397 0.970984
vt 0.345423 0.970983
vt 0.213234 0.969777
vt 0.213216 0.969775
vt 0.213081 0.969412
vt 0.213105 0.969409
vt 0.345440 0.970985
vt 0.345551 0.971351
vt 0.345525 0.971352
vt 0.345171 0.971218
vt 0.345190 0.971206
vt 0.345208 0.971214
vt 0.345220 0.971238
vt 0.345220 0.971269
vt 0.345208 0.971296
vt 0.345190 0.971307
vt 0.345171 0.971299
vt 0.345160 0.971275
vt 0.345160 0.971244
vt 0.345789 0.970654
vn -0.0000 0.0000 -1.0000
vn -0.0000 0.0000 1.0000
vn 0.2048 0.9788 -0.0000
vn 0.2043 0.9761 0.0747
vn 0.7390 0.6696 0.0747
vn 0.7410 0.6715 0.0000
vn 0.8598 -0.4928 0.1340
vn 0.9852 0.1067 0.1340
vn 0.9942 0.1076 -0.0000
vn 0.8676 -0.4973 0.0000
vn -0.2030 -0.9700 0.1340
vn 0.4059 -0.9040 0.1340
vn 0.4096 -0.9123 0.0000
vn -0.2048 -0.9788 -0.0000
vn -0.7343 -0.6654 0.1340
vn -0.7410 -0.6715 0.0000
vn -0.9852 -0.1067 0.1340
vn -0.9942 -0.1077 -0.0000
vn -0.8598 0.4928 0.1340
vn -0.9942 -0.1076 -0.0000
vn -0.8676 0.4973 0.0000
vn -0.4059 0.9040 0.1340
vn -0.4096 0.9123 -0.0000
vn 0.2030 0.9700 0.1340
vn -0.8652 0.4959 0.0747
vn -0.4085 0.9097 0.0747
vn -0.6888 -0.6242 -0.3686
vn -0.1904 -0.9099 -0.3686
vn -0.3706 0.8254 0.4258
vn -0.7850 0.4499 0.4258
vn -0.7987 0.4578 0.3906
vn -0.3771 0.8398 0.3906
vn -0.9914 -0.1073 0.0747
vn -0.7390 -0.6696 0.0747
vn -0.9914 -0.1074 0.0747
vn -0.2043 -0.9761 0.0747
vn 0.9914 0.1074 0.0747
vn 0.9942 0.1077 -0.0000
vn 0.4084 -0.9097 0.0747
vn -0.2042 -0.9761 0.0747
vn 0.8652 -0.4959 0.0747
vn 0.4085 -0.9097 0.0747
vn -0.6705 -0.6076 0.4258
vn -0.1853 -0.8856 0.4258
vn -0.1886 -0.9010 0.3906
vn -0.6822 -0.6181 0.3906
vn 0.7343 0.6654 0.1340
vn 0.1853 0.8856 0.4258
vn 0.1886 0.9010 0.3906
vn -0.8996 -0.0974 0.4258
vn -0.9152 -0.0991 0.3906
vn 0.3706 -0.8254 0.4258
vn 0.7850 -0.4499 0.4258
vn 0.7987 -0.4578 0.3906
vn 0.3771 -0.8398 0.3906
vn 0.6705 0.6076 0.4258
vn 0.6822 0.6181 0.3906
vn -0.1854 -0.8856 0.4258
vn 0.8996 0.0974 0.4258
vn 0.9152 0.0991 0.3906
vn 0.8138 -0.4664 0.3467
vn 0.9325 0.1010 0.3467
vn 0.1921 0.9181 0.3467
vn -0.3842 0.8557 0.3467
vn -0.9325 -0.1010 0.3467
vn -0.6951 -0.6298 0.3467
vn 0.3842 -0.8557 0.3467
vn 0.6951 0.6298 0.3467
vn -0.8138 0.4664 0.3467
vn -0.1921 -0.9181 0.3467
vn 0.7168 0.6496 0.2534
vn 0.9617 0.1042 0.2534
vn 0.9617 0.1041 0.2534
vn 0.8393 -0.4810 0.2534
vn 0.3962 -0.8825 0.2534
vn -0.1981 -0.9468 0.2534
vn -0.1982 -0.9468 0.2534
vn -0.7168 -0.6496 0.2534
vn -0.9617 -0.1042 0.2534
vn -0.9617 -0.1041 0.2534
vn -0.8393 0.4810 0.2534
vn -0.3962 0.8825 0.2534
vn 0.1981 0.9469 0.2534
vn 0.6889 0.6242 -0.3686
vn 0.1904 0.9099 -0.3686
vn 0.0884 0.4222 -0.9022
vn 0.3196 0.2896 -0.9022
vn 0.4288 0.0464 -0.9022
vn 0.3742 -0.2145 -0.9022
vn 0.1767 -0.3935 -0.9022
vn -0.0884 -0.4222 -0.9022
vn -0.3196 -0.2896 -0.9022
vn -0.4288 -0.0464 -0.9022
vn -0.3742 0.2145 -0.9022
vn -0.1767 0.3935 -0.9022
vn -0.3807 0.8480 -0.3686
vn -0.9242 -0.1001 -0.3686
vn 0.3808 -0.8480 -0.3686
vn 0.8065 -0.4622 -0.3686
vn -0.8065 0.4622 -0.3686
vn -0.9242 -0.1000 -0.3686
vn 0.3807 -0.8480 -0.3686
vn 0.9242 0.1000 -0.3686
vn -0.3808 0.8480 -0.3686
vn -0.8065 0.4623 -0.3686
vn 0.9242 0.1001 -0.3686
vn -0.6889 -0.6242 -0.3686
usemtl Atlas.088
s off
f 30/1/1 28/2/1 52/3/1
f 30/1/1 52/3/1 54/4/1
f 22/5/1 17/6/1 41/7/1
f 22/5/1 41/7/1 46/8/1
f 39/9/1 38/10/1 62/11/1
f 39/9/1 62/11/1 63/12/1
f 33/13/1 30/1/1 54/4/1
f 33/13/1 54/4/1 57/14/1
f 24/15/1 22/5/1 46/8/1
f 24/15/1 46/8/1 48/16/1
f 20/17/1 39/9/1 63/12/1
f 20/17/1 63/12/1 44/18/1
f 35/19/1 33/13/1 57/14/1
f 35/19/1 57/14/1 59/20/1
f 28/2/1 24/15/1 48/16/1
f 28/2/1 48/16/1 52/3/1
f 17/6/1 20/17/1 44/18/1
f 17/6/1 44/18/1 41/7/1
f 38/10/1 35/19/1 59/20/1
f 38/10/1 59/20/1 62/11/1
f 70/21/2 65/22/2 68/23/2
f 68/23/2 87/24/2 86/25/2
f 86/25/2 83/26/2 81/27/2
f 81/27/2 78/28/2 76/29/2
f 76/29/2 72/30/2 70/21/2
f 70/21/2 68/23/2 86/25/2
f 86/25/2 81/27/2 76/29/2
f 86/25/2 76/29/2 70/21/2
s 1
f 16/31/3 136/32/4 89/33/5
f 16/31/3 89/33/5 1/34/6
f 144/35/7 138/36/8 18/37/9
f 144/35/7 18/37/9 23/38/10
f 148/39/11 146/40/12 25/41/13
f 148/39/11 25/41/13 26/42/14
f 152/43/15 149/44/11 27/45/14
f 152/43/15 27/45/14 29/46/16
f 155/47/17 152/43/15 29/46/16
f 155/47/17 29/46/16 32/48/18
f 158/49/19 154/50/17 31/51/20
f 158/49/19 31/51/20 34/52/21
f 160/53/22 158/49/19 34/52/21
f 160/53/22 34/52/21 36/54/23
f 164/55/24 161/56/22 37/57/23
f 164/55/24 37/57/23 40/58/3
f 13/59/21 127/60/25 131/61/26
f 13/59/21 131/61/26 14/62/23
f 146/40/12 144/35/7 23/38/10
f 146/40/12 23/38/10 25/41/13
f 8/63/14 9/64/16 184/65/27
f 8/63/14 184/65/27 181/66/28
f 129/67/29 125/68/30 159/69/31
f 129/67/29 159/69/31 162/70/32
f 10/71/20 119/72/33 126/73/25
f 10/71/20 126/73/25 12/74/21
f 9/64/16 114/75/34 120/76/35
f 9/64/16 120/76/35 11/77/18
f 8/63/14 108/78/36 114/75/34
f 8/63/14 114/75/34 9/64/16
f 1/34/6 89/33/5 95/79/37
f 1/34/6 95/79/37 3/80/38
f 5/81/13 102/82/39 107/83/40
f 5/81/13 107/83/40 7/84/14
f 4/85/10 99/86/41 103/87/42
f 4/85/10 103/87/42 6/88/13
f 2/89/9 94/90/37 99/86/41
f 2/89/9 99/86/41 4/85/10
f 15/91/23 132/92/26 136/32/4
f 15/91/23 136/32/4 16/31/3
f 113/93/43 106/94/44 151/95/45
f 113/93/43 151/95/45 153/96/46
f 143/97/47 164/55/24 40/58/3
f 143/97/47 40/58/3 21/98/6
f 135/99/48 130/100/29 163/101/32
f 135/99/48 163/101/32 165/102/49
f 118/103/50 113/93/43 153/96/46
f 118/103/50 153/96/46 157/104/51
f 101/105/52 98/106/53 145/107/54
f 101/105/52 145/107/54 147/108/55
f 90/109/56 135/99/48 165/102/49
f 90/109/56 165/102/49 142/110/57
f 125/68/30 117/111/50 156/112/51
f 125/68/30 156/112/51 159/69/31
f 105/113/58 101/105/52 147/108/55
f 105/113/58 147/108/55 150/114/45
f 98/106/53 92/115/59 140/116/60
f 98/106/53 140/116/60 145/107/54
f 47/117/61 42/118/62 66/119/62
f 47/117/61 66/119/62 71/120/61
f 64/121/63 61/122/64 85/123/64
f 64/121/63 85/123/64 88/124/63
f 56/125/65 53/126/66 77/127/66
f 56/125/65 77/127/66 80/128/65
f 49/129/67 47/117/61 71/120/61
f 49/129/67 71/120/61 73/130/67
f 45/131/68 64/121/63 88/124/63
f 45/131/68 88/124/63 69/132/68
f 58/133/69 55/134/65 79/135/65
f 58/133/69 79/135/65 82/136/69
f 50/137/70 49/129/67 73/130/67
f 50/137/70 73/130/67 74/138/70
f 43/139/62 45/131/68 69/132/68
f 43/139/62 69/132/68 67/140/62
f 60/141/64 58/133/69 82/136/69
f 60/141/64 82/136/69 84/142/64
f 53/126/66 51/143/70 75/144/70
f 53/126/66 75/144/70 77/127/66
f 95/79/37 89/33/5 91/145/71
f 95/79/37 91/145/71 97/146/72
f 97/146/72 91/145/71 90/109/56
f 97/146/72 90/109/56 93/147/59
f 99/86/41 94/90/37 96/148/73
f 99/86/41 96/148/73 100/149/74
f 100/149/74 96/148/73 92/115/59
f 100/149/74 92/115/59 98/106/53
f 103/87/42 99/86/41 100/149/74
f 103/87/42 100/149/74 104/150/75
f 104/150/75 100/149/74 98/106/53
f 104/150/75 98/106/53 101/105/52
f 109/151/36 103/87/42 104/150/75
f 109/151/36 104/150/75 111/152/76
f 111/152/76 104/150/75 101/105/52
f 111/152/76 101/105/52 105/113/58
f 115/153/34 110/154/40 112/155/77
f 115/153/34 112/155/77 116/156/78
f 116/156/78 112/155/77 106/94/44
f 116/156/78 106/94/44 113/93/43
f 122/157/33 115/153/34 116/156/78
f 122/157/33 116/156/78 124/158/79
f 124/158/79 116/156/78 113/93/43
f 124/158/79 113/93/43 118/103/50
f 127/60/25 121/159/35 123/160/80
f 127/60/25 123/160/80 128/161/81
f 128/161/81 123/160/80 117/111/50
f 128/161/81 117/111/50 125/68/30
f 131/61/26 127/60/25 128/161/81
f 131/61/26 128/161/81 133/162/82
f 133/162/82 128/161/81 125/68/30
f 133/162/82 125/68/30 129/67/29
f 136/32/4 132/92/26 134/163/82
f 136/32/4 134/163/82 137/164/83
f 137/164/83 134/163/82 130/100/29
f 137/164/83 130/100/29 135/99/48
f 89/33/5 136/32/4 137/164/83
f 89/33/5 137/164/83 91/145/71
f 91/145/71 137/164/83 135/99/48
f 91/145/71 135/99/48 90/109/56
f 139/165/8 143/97/47 21/98/6
f 139/165/8 21/98/6 19/166/38
f 141/167/60 142/110/57 143/97/47
f 141/167/60 143/97/47 139/165/8
f 145/107/54 140/116/60 138/36/8
f 145/107/54 138/36/8 144/35/7
f 147/108/55 145/107/54 144/35/7
f 147/108/55 144/35/7 146/40/12
f 150/114/45 147/108/55 146/40/12
f 150/114/45 146/40/12 148/39/11
f 153/96/46 151/95/45 149/44/11
f 153/96/46 149/44/11 152/43/15
f 157/104/51 153/96/46 152/43/15
f 157/104/51 152/43/15 155/47/17
f 159/69/31 156/112/51 154/50/17
f 159/69/31 154/50/17 158/49/19
f 162/70/32 159/69/31 158/49/19
f 162/70/32 158/49/19 160/53/22
f 165/102/49 163/101/32 161/56/22
f 165/102/49 161/56/22 164/55/24
f 142/110/57 165/102/49 164/55/24
f 142/110/57 164/55/24 143/97/47
f 93/147/59 90/109/56 142/110/57
f 93/147/59 142/110/57 141/167/60
f 16/31/3 1/34/6 168/168/84
f 16/31/3 168/168/84 200/169/85
f 201/170/86 166/171/87 172/172/88
f 172/172/88 175/173/89 179/174/90
f 179/174/90 183/175/91 186/176/92
f 186/176/92 190/177/93 194/178/94
f 194/178/94 198/179/95 201/170/86
f 201/170/86 172/172/88 179/174/90
f 179/174/90 186/176/92 194/178/94
f 179/174/90 194/178/94 201/170/86
f 15/91/23 16/31/3 200/169/85
f 15/91/23 200/169/85 197/180/96
f 9/64/16 11/77/18 188/181/97
f 9/64/16 188/181/97 184/65/27
f 4/85/10 6/88/13 178/182/98
f 4/85/10 178/182/98 174/183/99
f 10/71/20 12/74/21 191/184/100
f 10/71/20 191/184/100 187/185/101
f 5/81/13 7/84/14 180/186/28
f 5/81/13 180/186/28 176/187/102
f 2/89/9 4/85/10 174/183/99
f 2/89/9 174/183/99 170/188/103
f 13/59/21 14/62/23 196/189/104
f 13/59/21 196/189/104 193/190/105
f 167/191/84 169/192/106 172/172/88
f 167/191/84 172/172/88 166/171/87
f 169/192/106 173/193/99 175/173/89
f 169/192/106 175/173/89 172/172/88
f 173/193/99 177/194/98 179/174/90
f 173/193/99 179/174/90 175/173/89
f 177/194/98 182/195/28 183/175/91
f 177/194/98 183/175/91 179/174/90
f 182/195/28 185/196/107 186/176/92
f 182/195/28 186/176/92 183/175/91
f 185/196/107 189/197/97 190/177/93
f 185/196/107 190/177/93 186/176/92
f 189/197/97 192/198/100 194/178/94
f 189/197/97 194/178/94 190/177/93
f 192/198/100 195/199/104 198/179/95
f 192/198/100 198/179/95 194/178/94
f 195/199/104 199/200/85 201/170/86
f 195/199/104 201/170/86 198/179/95
f 199/200/85 167/191/84 166/171/87
f 199/200/85 166/171/87 201/170/86
f 1/34/6 3/80/38 171/201/106
f 1/34/6 171/201/106 168/168/84
